PathFileType	4	(X/Y/Z)	/Users/itak/Documents/Research/Walk-IL/dataset/trc/00428_00167.trc
DataRate	CameraRate	NumFrames	NumMarkers	Units	OrigDataRate	OrigDataStartFrame	OrigNumFrames
100.000000	100.000000	4	53	mm	100.000000	589	786
Frame#	Time	RPSI			LPSI			L3			STRN			T10			C7			CLAV			RBAK			LBAK			LSHO			LUPA			LAEL			LAOL			LWTS			LWPS			LFRA			LIFD			LHPS			LHTS			RSHO			RUPA			RAEL			RAOL			RWTS			RWPS			RFRA			RIFD			RHTS			RHPS			RBHD			LFHD			RFHD			LBHD			LHIP			RHIP			RASI			LASI			LKNE			LTHI			LANK			LTIP			LTOE			LMT1			LMT5			LHEE			RKNE			RTHI			RANK			RTIP			RTOE			RMT1			RMT5			RHEE			
		X1	Y1	Z1	X2	Y2	Z2	X3	Y3	Z3	X4	Y4	Z4	X5	Y5	Z5	X6	Y6	Z6	X7	Y7	Z7	X8	Y8	Z8	X9	Y9	Z9	X10	Y10	Z10	X11	Y11	Z11	X12	Y12	Z12	X13	Y13	Z13	X14	Y14	Z14	X15	Y15	Z15	X16	Y16	Z16	X17	Y17	Z17	X18	Y18	Z18	X19	Y19	Z19	X20	Y20	Z20	X21	Y21	Z21	X22	Y22	Z22	X23	Y23	Z23	X24	Y24	Z24	X25	Y25	Z25	X26	Y26	Z26	X27	Y27	Z27	X28	Y28	Z28	X29	Y29	Z29	X30	Y30	Z30	X31	Y31	Z31	X32	Y32	Z32	X33	Y33	Z33	X34	Y34	Z34	X35	Y35	Z35	X36	Y36	Z36	X37	Y37	Z37	X38	Y38	Z38	X39	Y39	Z39	X40	Y40	Z40	X41	Y41	Z41	X42	Y42	Z42	X43	Y43	Z43	X44	Y44	Z44	X45	Y45	Z45	X46	Y46	Z46	X47	Y47	Z47	X48	Y48	Z48	X49	Y49	Z49	X50	Y50	Z50	X51	Y51	Z51	X52	Y52	Z52	X53	Y53	Z53	

590	5.89	949.585693359375	959.8567504882812	885.1469116210938	1050.852661132812	955.3585205078125	784.1881713867188	1004.265075683594	1054.442016601562	846.44091796875	1206.880493164062	1247.580688476562	1015.366821289062	995.5853881835938	1176.9140625	824.5725708007812	1031.897338867188	1446.150756835938	873.1538696289062	1180.88818359375	1360.892333984375	987.3156127929688	923.86865234375	1326.033325195312	906.985595703125	1080.034912109375	1397.915771484375	776.227294921875	1207.126708984375	1418.26025390625	794.59228515625	1291.088256835938	1308.35986328125	730.9605712890625	1390.288818359375	1118.347412109375	761.427001953125	1301.768188476562	1066.126220703125	749.8873291015625	1471.452270507812	983.3794555664062	914.165283203125	1494.962158203125	947.190673828125	853.9956665039062	1439.005249023438	1051.69482421875	798.8405151367188	1542.337524414062	846.6107177734375	981.853515625	1529.832397460938	884.347412109375	891.072998046875	1522.55810546875	919.2869262695312	952.4361572265625	982.7929077148438	1414.650756835938	1043.33154296875	923.421142578125	1353.624267578125	1093.159057617188	907.6224975585938	1077.26904296875	1171.055419921875	893.940185546875	1039.503173828125	1115.025756835938	1089.549560546875	957.7257690429688	1237.659912109375	1018.726440429688	912.2579956054688	1263.27734375	927.989013671875	1027.983154296875	1196.536254882812	1156.44482421875	824.373046875	1294.635009765625	1137.70166015625	881.4249877929688	1285.964477539062	1069.998779296875	846.9273681640625	1294.606323242188	1049.334716796875	1646.812866210938	991.134765625	1248.590698242188	1657.758056640625	937.3875732421875	1175.440551757812	1665.492797851562	1044.790405273438	1135.503173828125	1641.1826171875	836.0717163085938	1223.956176757812	842.0768432617188	798.5466918945312	935.2028198242188	866.07080078125	1077.725341796875	1054.338623046875	906.2398071289062	1093.54296875	1241.126586914062	885.815673828125	921.2052001953125	1182.891723632812	422.7232360839844	860.023193359375	1218.58740234375	575.5550537109375	849.0956420898438	1121.982299804688	26.13629150390625	865.1173706054688	1179.884033203125	269.4520874023438	870.9013061523438	1222.623657226562	29.95912551879883	1076.79736328125	1155.297973632812	38.5631217956543	1039.281616210938	1235.344360351562	32.88234329223633	960.2122192382812	1050.338134765625	30.20966148376465	859.55712890625	998.1629638671875	479.6429443359375	1147.891845703125	961.5274047851562	733.4703979492188	1116.76318359375	874.5046997070312	72.73526763916016	1090.893310546875	957.470458984375	338.5298767089844	1149.936889648438	1066.181884765625	55.53247833251953	1182.716674804688	1040.619506835938	51.37031173706055	1114.123413085938	962.6597290039062	57.2818489074707	1184.748901367188	849.149658203125	74.11210632324219	1014.712890625	
591	5.9	951.120361328125	960.0375366210938	886.20361328125	1052.218627929688	955.3873901367188	785.1156616210938	1005.698974609375	1054.641967773438	847.4683227539062	1208.669067382812	1247.60791015625	1016.275146484375	997.0775146484375	1177.169799804688	825.6600341796875	1033.550537109375	1446.338134765625	874.4537353515625	1182.6435546875	1360.92431640625	988.292724609375	925.448974609375	1326.225830078125	908.306884765625	1081.489624023438	1398.130004882812	777.4512329101562	1208.789306640625	1418.182983398438	795.4613647460938	1291.764526367188	1307.544799804688	731.3509521484375	1388.969848632812	1116.037841796875	760.8216552734375	1299.6376953125	1065.197265625	749.4738159179688	1468.738159179688	978.590576171875	912.156494140625	1491.392944335938	942.5081176757812	851.5940551757812	1436.8427734375	1048.351684570312	797.526611328125	1537.633422851562	840.1473999023438	978.43798828125	1525.334228515625	878.7976684570312	888.0223999023438	1518.949462890625	913.3502197265625	949.6946411132812	984.6083984375	1414.463012695312	1044.819580078125	925.2694091796875	1353.320678710938	1094.456909179688	908.5281982421875	1076.352661132812	1171.160766601562	894.8365478515625	1039.401123046875	1114.62646484375	1087.56494140625	952.0004272460938	1237.570556640625	1015.464294433594	908.15673828125	1262.204956054688	927.7230834960938	1026.37646484375	1196.165283203125	1150.367553710938	816.0187377929688	1293.3056640625	1133.356323242188	873.6497802734375	1285.169067382812	1064.617919921875	841.0103759765625	1293.010864257812	1051.036010742188	1646.895874023438	992.4778442382812	1250.280395507812	1657.865234375	938.6854248046875	1177.123413085938	1665.542846679688	1046.108520507812	1137.162353515625	1641.338989257812	837.4065551757812	1225.179809570312	841.9835815429688	799.3265380859375	937.1632080078125	866.5447387695312	1078.949462890625	1056.205688476562	906.7135009765625	1094.629028320312	1242.569580078125	885.82421875	921.89453125	1183.561401367188	422.7007751464844	860.5053100585938	1219.434448242188	575.5936889648438	849.8703002929688	1121.951538085938	26.13935470581055	865.12109375	1180.325561523438	269.499267578125	871.068603515625	1222.713745117188	29.93664741516113	1076.76708984375	1155.38037109375	38.61830139160156	1039.267578125	1235.454833984375	32.80580139160156	960.06884765625	1050.257568359375	30.2463550567627	859.5846557617188	1001.134643554688	479.9535827636719	1150.0087890625	964.0145263671875	734.0996704101562	1118.551635742188	883.3358764648438	70.46865081787109	1099.0185546875	962.4656982421875	338.41748046875	1154.083129882812	1075.941284179688	57.46567535400391	1190.14697265625	1050.06640625	52.39922714233398	1121.79638671875	972.3169555664062	57.81139755249023	1192.628784179688	857.4806518554688	70.44507598876953	1022.970336914062	
592	5.91	952.587158203125	960.2088623046875	887.2971801757812	1053.498901367188	955.417236328125	786.070556640625	1007.059814453125	1054.834594726562	848.52392578125	1210.406127929688	1247.632568359375	1017.1689453125	998.4906005859375	1177.44140625	826.7573852539062	1035.146728515625	1446.529541015625	875.7443237304688	1184.345458984375	1360.954467773438	989.25830078125	926.9638061523438	1326.417724609375	909.662353515625	1082.858520507812	1398.339965820312	778.6881713867188	1210.365356445312	1418.100341796875	796.3352661132812	1292.353759765625	1306.740234375	731.7258911132812	1387.467529296875	1113.708618164062	760.1408081054688	1297.309692382812	1064.31005859375	748.9751586914062	1465.73583984375	973.5252075195312	909.8590087890625	1487.484985351562	937.6481323242188	848.8449096679688	1434.443481445312	1044.9287109375	796.0339965820312	1532.451049804688	833.2498779296875	974.4706420898438	1520.39306640625	872.9827880859375	884.5021362304688	1514.949951171875	907.0264892578125	946.5411376953125	986.3861694335938	1414.308837890625	1046.314697265625	927.0700073242188	1353.05224609375	1095.783569335938	909.3601684570312	1075.49951171875	1171.302490234375	895.5945434570312	1039.414428710938	1114.266357421875	1085.219116210938	946.1698608398438	1237.297241210938	1011.886657714844	904.0147094726562	1260.939086914062	927.3170166015625	1024.807739257812	1195.758911132812	1143.870727539062	807.697021484375	1291.704956054688	1128.611572265625	865.8700561523438	1284.125610351562	1058.889404296875	835.116455078125	1291.220947265625	1052.693603515625	1646.980834960938	993.8250122070312	1251.922607421875	1657.964477539062	939.9759521484375	1178.761352539062	1665.576904296875	1047.419189453125	1138.759521484375	1641.492553710938	838.748779296875	1226.338256835938	841.89013671875	800.1036987304688	939.0597534179688	867.0282592773438	1080.180053710938	1058.046997070312	907.1870727539062	1095.739135742188	1243.956665039062	885.8219604492188	922.5475463867188	1184.182739257812	422.6687927246094	860.9912719726562	1220.255249023438	575.6273803710938	850.6407470703125	1121.922119140625	26.14042472839355	865.1224975585938	1180.754516601562	269.5602416992188	871.2115478515625	1222.811401367188	29.90484046936035	1076.7353515625	1155.458251953125	38.67942428588867	1039.258422851562	1235.575805664062	32.73146820068359	959.9196166992188	1050.165771484375	30.27448844909668	859.6213989257812	1003.971252441406	480.2592468261719	1152.031005859375	966.4384765625	734.73974609375	1120.344848632812	891.7188110351562	68.52572631835938	1106.70166015625	967.1732788085938	338.3697509765625	1157.957763671875	1085.105834960938	59.39950942993164	1197.212158203125	1058.977905273438	53.52465057373047	1129.114013671875	981.4447021484375	58.48264312744141	1200.119140625	865.4341430664062	67.1812744140625	1030.8095703125	
593	5.92	953.9830322265625	960.3688354492188	888.44384765625	1054.69873046875	955.4500122070312	787.0565185546875	1008.3544921875	1055.021728515625	849.6132202148438	1212.088500976562	1247.657348632812	1018.047668457031	999.8256225585938	1177.7158203125	827.8809814453125	1036.680908203125	1446.724975585938	877.0287475585938	1185.99072265625	1360.987426757812	990.212158203125	928.4136352539062	1326.605346679688	911.0467529296875	1084.143432617188	1398.548828125	779.9337768554688	1211.85595703125	1418.019287109375	797.2092895507812	1292.8642578125	1305.962524414062	732.0903930664062	1385.797485351562	1111.385375976562	759.3944091796875	1294.808715820312	1063.48779296875	748.39453125	1462.451538085938	968.2154541015625	907.2750854492188	1483.253295898438	932.6557006835938	845.7515258789062	1431.82421875	1041.460083007812	794.3712158203125	1526.784790039062	825.9659423828125	969.9439086914062	1515.025268554688	866.953369140625	880.5108642578125	1510.559204101562	900.356689453125	942.9729614257812	988.1178588867188	1414.1923828125	1047.800659179688	928.8111572265625	1352.826049804688	1097.127685546875	910.1170654296875	1074.713745117188	1171.482055664062	896.2133178710938	1039.561279296875	1113.942993164062	1082.517211914062	940.2821655273438	1236.85498046875	1007.997131347656	899.8406982421875	1259.4638671875	926.7767944335938	1023.289733886719	1195.320678710938	1136.98388671875	799.47265625	1289.829467773438	1123.471923828125	858.14794921875	1282.834716796875	1052.839599609375	829.2722778320312	1289.20947265625	1054.307006835938	1647.066650390625	995.1746215820312	1253.515991210938	1658.0556640625	941.2619018554688	1180.35693359375	1665.593139648438	1048.7236328125	1140.2939453125	1641.64501953125	840.1006469726562	1227.428588867188	841.7971801757812	800.8788452148438	940.9104614257812	867.5187377929688	1081.42431640625	1059.864624023438	907.6536865234375	1096.875366210938	1245.294311523438	885.8065795898438	923.1627197265625	1184.753784179688	422.6287231445312	861.4815063476562	1221.044311523438	575.6543579101562	851.3991088867188	1121.8916015625	26.14101028442383	865.1221923828125	1181.153930664062	269.6085815429688	871.3381958007812	1222.917114257812	29.86256790161133	1076.70263671875	1155.529907226562	38.74300765991211	1039.25244140625	1235.703491210938	32.66075134277344	959.774169921875	1050.070190429688	30.29781341552734	859.6643676757812	1006.669067382812	480.5549926757812	1153.948852539062	968.8159790039062	735.3881225585938	1122.152099609375	899.62939453125	66.89298248291016	1113.926513671875	971.5950317382812	338.3841247558594	1161.571044921875	1093.651977539062	61.33068466186523	1203.925415039062	1067.30029296875	54.67977905273438	1136.048706054688	989.9937133789062	59.26923751831055	1207.207885742188	872.9924926757812	64.31111907958984	1038.190673828125	
